<svg id="_002-instagram" data-name="002-instagram" xmlns="http://www.w3.org/2000/svg" width="13.938" height="13.941" viewBox="0 0 13.938 13.941">
  <path id="Path_198" data-name="Path 198" d="M14.352,4.1a5.094,5.094,0,0,0-.324-1.691,3.571,3.571,0,0,0-2.04-2.04A5.107,5.107,0,0,0,10.3.044C9.551.008,9.314,0,7.421,0S5.291.008,4.548.041A5.1,5.1,0,0,0,2.857.365a3.4,3.4,0,0,0-1.236.806A3.432,3.432,0,0,0,.817,2.4,5.108,5.108,0,0,0,.493,4.1c-.035.746-.044.983-.044,2.876S.457,9.1.49,9.845a5.094,5.094,0,0,0,.324,1.691,3.571,3.571,0,0,0,2.04,2.04,5.108,5.108,0,0,0,1.691.324c.743.033.98.041,2.873.041s2.13-.008,2.873-.041a5.093,5.093,0,0,0,1.691-.324,3.566,3.566,0,0,0,2.04-2.04,5.111,5.111,0,0,0,.324-1.691c.033-.744.041-.98.041-2.873S14.385,4.842,14.352,4.1ZM13.1,9.791a3.821,3.821,0,0,1-.24,1.294,2.313,2.313,0,0,1-1.324,1.324,3.835,3.835,0,0,1-1.294.24c-.735.033-.956.041-2.816.041s-2.083-.008-2.816-.041a3.819,3.819,0,0,1-1.294-.24,2.145,2.145,0,0,1-.8-.52,2.167,2.167,0,0,1-.52-.8,3.835,3.835,0,0,1-.24-1.294c-.033-.735-.041-.956-.041-2.816s.008-2.083.041-2.816a3.819,3.819,0,0,1,.24-1.294,2.119,2.119,0,0,1,.523-.8,2.164,2.164,0,0,1,.8-.52,3.837,3.837,0,0,1,1.294-.24c.735-.033.956-.041,2.816-.041s2.083.008,2.816.041a3.821,3.821,0,0,1,1.294.24,2.144,2.144,0,0,1,.8.52,2.167,2.167,0,0,1,.52.8,3.837,3.837,0,0,1,.24,1.294c.033.735.041.956.041,2.816S13.129,9.055,13.1,9.791Zm0,0" transform="translate(-0.449 0)" fill="#fff"/>
  <path id="Path_199" data-name="Path 199" d="M128.531,124.5a3.581,3.581,0,1,0,3.581,3.581A3.582,3.582,0,0,0,128.531,124.5Zm0,5.9a2.323,2.323,0,1,1,2.323-2.323A2.323,2.323,0,0,1,128.531,130.4Zm0,0" transform="translate(-121.559 -121.109)" fill="#fff"/>
  <path id="Path_200" data-name="Path 200" d="M364.121,89.438a.836.836,0,1,1-.836-.836A.836.836,0,0,1,364.121,89.438Zm0,0" transform="translate(-352.59 -86.189)" fill="#fff"/>
</svg>
