<svg xmlns="http://www.w3.org/2000/svg" width="24.083" height="32.111" viewBox="0 0 24.083 32.111">
  <g id="baby-book" transform="translate(-64.004 0)">
    <g id="Group_293" data-name="Group 293" transform="translate(64.004 0)">
      <g id="Group_292" data-name="Group 292" transform="translate(0 0)">
        <path id="Path_213" data-name="Path 213" d="M85.411,4.015H84.073V2.632A2.638,2.638,0,0,0,81.4,0a2.679,2.679,0,0,0-.6.084L66.537,4.029A2.672,2.672,0,0,0,64,6.69V29.435a2.679,2.679,0,0,0,2.676,2.676H85.411a2.679,2.679,0,0,0,2.676-2.676V6.69A2.678,2.678,0,0,0,85.411,4.015ZM81.143,1.378a1.305,1.305,0,0,1,1.592,1.254V4.015H71.609Zm5.606,28.057a1.34,1.34,0,0,1-1.338,1.338H66.68a1.34,1.34,0,0,1-1.338-1.338V6.69A1.34,1.34,0,0,1,66.68,5.352H85.411A1.34,1.34,0,0,1,86.749,6.69Z" transform="translate(-64.004 0)" fill="#fff"/>
        <path id="Path_214" data-name="Path 214" d="M180.371,200.369a3.92,3.92,0,0,1-1,.144,4.018,4.018,0,0,1-4.014-4.014,3.919,3.919,0,0,1,.144-1,.669.669,0,0,0-.815-.816,5.342,5.342,0,1,0,6.5,6.5.669.669,0,0,0-.816-.815Zm-4.348,3.489a4,4,0,0,1-2.006-7.474c0,.039,0,.077,0,.116a5.366,5.366,0,0,0,5.467,5.35A4,4,0,0,1,176.023,203.858Z" transform="translate(-163.981 -182.451)" fill="#fff"/>
      </g>
    </g>
  </g>
</svg>
