<svg id="_006-snapchat" data-name="006-snapchat" xmlns="http://www.w3.org/2000/svg" width="13.944" height="13.017" viewBox="0 0 13.944 13.017">
  <g id="Group_282" data-name="Group 282" transform="translate(0 0)">
    <path id="Path_202" data-name="Path 202" d="M13.628,26.788a3.859,3.859,0,0,1-2.643-2.268l-.01-.022a.53.53,0,0,1-.064-.431c.092-.218.483-.342.733-.421.07-.023.136-.044.189-.065.506-.2.76-.455.755-.76a.651.651,0,0,0-.475-.562.858.858,0,0,0-.324-.063.727.727,0,0,0-.3.062,1.537,1.537,0,0,1-.549.16.526.526,0,0,1-.148-.025c0-.076.01-.154.014-.234l0-.041a6.947,6.947,0,0,0-.182-2.835,3.768,3.768,0,0,0-3.5-2.255l-.273,0A3.762,3.762,0,0,0,3.36,19.285a6.938,6.938,0,0,0-.181,2.836c.006.093.012.184.017.273a.542.542,0,0,1-.176.026,1.461,1.461,0,0,1-.6-.161.783.783,0,0,0-1.016.481c-.044.232.049.566.746.842.054.021.122.043.206.07.234.074.624.2.717.416a.555.555,0,0,1-.072.45,3.969,3.969,0,0,1-2.69,2.265A.375.375,0,0,0,0,27.172a.48.48,0,0,0,.038.161c.154.359.739.609,1.84.783a2.31,2.31,0,0,1,.068.265c.023.106.048.216.081.33a.407.407,0,0,0,.421.308,1.87,1.87,0,0,0,.333-.046,3.538,3.538,0,0,1,.716-.082,3.161,3.161,0,0,1,.513.044,2.441,2.441,0,0,1,.953.5,2.789,2.789,0,0,0,1.839.616l.07,0,.1,0a3.487,3.487,0,0,0,2.056-.616,2.471,2.471,0,0,1,.951-.5,3.173,3.173,0,0,1,.513-.044,3.575,3.575,0,0,1,.719.077,1.774,1.774,0,0,0,.345.04.4.4,0,0,0,.405-.3c.033-.112.057-.218.081-.327a2.372,2.372,0,0,1,.068-.263c1.085-.173,1.64-.412,1.793-.771a.474.474,0,0,0,.04-.164A.376.376,0,0,0,13.628,26.788Z" transform="translate(0.002 -17.029)" fill="#fff"/>
  </g>
</svg>
