<svg xmlns="http://www.w3.org/2000/svg" width="45" height="38" viewBox="0 0 45 38">
  <g id="Polygon_5" data-name="Polygon 5" fill="#fff">
    <path d="M 35.41779708862305 36.76436996459961 L 22.77182006835938 28.57345962524414 L 22.5 28.39739990234375 L 22.22817993164062 28.57345962524414 L 9.582202911376953 36.76436614990234 L 14.4138298034668 23.64690017700195 L 14.55253982543945 23.27033996582031 L 14.21492004394531 23.05341911315918 L 1.707752346992493 15.01762580871582 L 17.21165084838867 15.04407978057861 L 17.56251907348633 15.04467964172363 L 17.68240928649902 14.71492004394531 L 22.5 1.463399529457092 L 27.31759071350098 14.71492004394531 L 27.43748092651367 15.04467964172363 L 27.78834915161133 15.04407978057861 L 43.2922477722168 15.01762580871582 L 30.78508949279785 23.05341911315918 L 30.44747924804688 23.27033996582031 L 30.58617973327637 23.64690017700195 L 35.41779708862305 36.76436996459961 Z" stroke="none"/>
    <path d="M 22.5 2.926788330078125 L 17.91254997253418 15.5452709197998 L 3.415500640869141 15.52053833007812 L 15.16040992736816 23.06658935546875 L 10.57017135620117 35.52873229980469 L 22.5 27.80167961120605 L 34.42982864379883 35.52873229980469 L 29.83959007263184 23.06658935546875 L 41.58449935913086 15.52053833007812 L 27.08745002746582 15.5452709197998 L 22.5 2.926788330078125 M 22.5 0 L 27.78750038146973 14.54406929016113 L 45 14.51470947265625 L 31.05535888671875 23.47407913208008 L 36.40576171875 38 L 22.5 28.99312019348145 L 8.59423828125 38 L 13.94463920593262 23.47407913208008 L 0 14.51470947265625 L 17.21249961853027 14.54406929016113 L 22.5 0 Z" stroke="none" fill="#707070"/>
  </g>
</svg>
