<svg id="_005-twitter" data-name="005-twitter" xmlns="http://www.w3.org/2000/svg" width="13.944" height="11.33" viewBox="0 0 13.944 11.33">
  <g id="Group_281" data-name="Group 281" transform="translate(0 0)">
    <path id="Path_201" data-name="Path 201" d="M13.944,49.341a5.96,5.96,0,0,1-1.647.451,2.843,2.843,0,0,0,1.258-1.58,5.713,5.713,0,0,1-1.813.692A2.858,2.858,0,0,0,6.8,50.859a2.943,2.943,0,0,0,.066.652,8.091,8.091,0,0,1-5.892-2.99,2.859,2.859,0,0,0,.878,3.821A2.823,2.823,0,0,1,.558,51.99v.031a2.872,2.872,0,0,0,2.29,2.809,2.853,2.853,0,0,1-.749.094,2.527,2.527,0,0,1-.541-.049,2.886,2.886,0,0,0,2.671,1.991A5.744,5.744,0,0,1,.684,58.086,5.354,5.354,0,0,1,0,58.047,8.048,8.048,0,0,0,4.385,59.33a8.08,8.08,0,0,0,8.136-8.135c0-.126,0-.248-.01-.37A5.7,5.7,0,0,0,13.944,49.341Z" transform="translate(0 -48)" fill="#fff"/>
  </g>
</svg>
